<?xml version="1.0" encoding="UTF-8"?><svg id="a" xmlns="http://www.w3.org/2000/svg" viewBox="0 0 809.48 237.28"><defs><style>.b{fill:none;stroke:#f55;stroke-linecap:round;stroke-linejoin:round;stroke-width:4px;}</style></defs><path class="b" d="M773.43,143.31v42.21c0,17.82-14.44,32.26-32.26,32.26h-122.72c11.42-10.97,11.79-29.13.81-40.55-10.97-11.42-29.13-11.79-40.55-.81-11.42,10.97-11.79,29.13-.81,40.55.27.28.54.55.81.81h-319.45c11.42-10.98,11.77-29.14.79-40.55-10.98-11.42-29.14-11.77-40.55-.79-11.42,10.98-11.77,29.14-.79,40.55.26.27.52.53.79.79h-47.44c11.42-10.97,11.79-29.13.81-40.55-10.97-11.42-29.13-11.79-40.55-.81-11.42,10.97-11.79,29.13-.81,40.55.27.28.54.55.81.81h-10.45l-109.11-13.52v-84.8c0-23.6,2.06-47.17,6.16-70.43l3.13-17.82c2-11.4,11.91-19.71,23.48-19.71h214.36c15.71,0,30.95,5.34,43.22,15.14h353.63c49.78,0,92.27,31.17,109.04,75.04,4.13,10.8,6.7,22.39,7.42,34.48.16,2.37.23,4.75.23,7.16h0Z"/><path class="b" d="M624.5,101.51H36.26c-4.62,0-8.36-3.74-8.36-8.36h0v-17.52c0-22.21,18.01-40.22,40.22-40.22h541.94c8.1,0,16.19.27,24.27.82l51.74,3.51c3.25.2,5.73,3,5.53,6.25-.09,1.43-.69,2.77-1.7,3.79l-41.87,41.98c-6.24,6.25-14.71,9.77-23.54,9.77v-.02ZM649.97,101.51l45.64-45.64c7.65-7.66,20.06-7.67,27.72-.02.58.58,1.12,1.19,1.62,1.84l25.49,32.73c2.34,2.99,1.81,7.31-1.18,9.64-1.21.95-2.7,1.46-4.24,1.46h-95.05ZM180.88,197.12c0,8.13-3.38,15.46-8.81,20.67-5.15,4.96-12.15,8-19.88,8s-14.72-3.04-19.86-8c-11.42-10.97-11.79-29.13-.81-40.55s29.13-11.79,40.55-.81c5.63,5.41,8.81,12.88,8.81,20.69Z"/><circle class="b" cx="152.2" cy="197.12" r="19.47"/><path class="b" d="M268.05,197.12c.03,15.8-12.75,28.64-28.55,28.67-.04,0-.08,0-.12,0-7.41.01-14.54-2.86-19.88-8-11.42-10.97-11.79-29.13-.81-40.55,10.97-11.42,29.13-11.79,40.55-.81,5.63,5.41,8.81,12.88,8.81,20.69Z"/><circle class="b" cx="239.38" cy="197.12" r="19.47"/><path class="b" d="M627.26,197.12c0,8.13-3.38,15.46-8.81,20.67-5.15,4.96-12.15,8-19.88,8s-14.72-3.04-19.86-8c-11.42-10.97-11.79-29.13-.81-40.55,10.97-11.42,29.13-11.79,40.55-.81,5.63,5.41,8.81,12.88,8.81,20.69Z"/><circle class="b" cx="598.58" cy="197.12" r="19.47"/><path class="b" d="M387.92,114.64h157.31v103.14h-157.31v-103.14ZM456.81,114.64v103.15M417.39,142.53h7.96M319.43,166.22h7.96M499.83,142.53h7.96M698.94,166.22h7.97M768.17,108.57h-76.52v46.3l60.25,16.73c6.01-11.51,12.55-20.39,21.53-17.12M691.65,154.87v62.92M773.43,177.65h-12.81c-1.59,0-2.88,1.29-2.88,2.88,0,.82.35,1.6.95,2.14l13.41,12.06M311.45,108.28h51.77v109.51h-51.77v-109.51ZM545.23,148.5h146.42M12.76,148.5h298.69M49.41,148.5l-5.91,6.2c-1.32,1.38-3.14,2.16-5.05,2.16h-16.52v20.82c0,5.02-2.05,9.81-5.68,13.28l-3.49,3.34"/><path class="b" d="M742.36,108.57c12.42-4.66,24.53-6.92,40.48-5.24l.42,6.94c-6.46-5.44-21.89-4.29-40.9-1.7h0ZM782.84,103.33c17.8-1.82,18.33,39.86,2.4,39.2l-2.4-39.2Z"/><path class="b" d="M773.2,136.16c-.7-11.8-3.2-23.43-7.42-34.48,11.43,2.2,13.81,24.62,7.42,34.48Z"/></svg>