<svg xmlns="http://www.w3.org/2000/svg" viewBox="0 0 237.28 809.48"><g xmlns="http://www.w3.org/2000/svg" transform="matrix(0 -1 1 0 -0 809.48)"><defs><style>.b{fill:#f55;}.b,.c{stroke:#f55;stroke-linecap:round;stroke-linejoin:round;stroke-width:4px;}.c{fill:none;}</style></defs><path class="c" d="M757.63,210.61H23.63c-6,0-10.87-4.87-10.87-10.87V37.54c0-6,4.87-10.87,10.87-10.87h734c2.61,0,5.09.86,7.05,2.35,2.16,1.63,3.77,3.98,4.39,6.76,5.35,24.25,8.42,52.58,8.42,82.86s-3.07,58.6-8.42,82.86c-.62,2.78-2.23,5.13-4.39,6.76-1.97,1.49-4.44,2.35-7.05,2.35Z" /><path class="c" d="M785.72,29.02h-21.04c-1.97-1.49-4.44-2.35-7.05-2.35l26.39-3.19,1.7,5.54Z" /><path class="c" d="M792.25,40.74c10.3-8.09.87-28.26-8.91-28.31-1.35,0-2.33,1.31-1.93,2.6l7.65,24.77c.42,1.36,2.07,1.82,3.2.94Z" /><path class="c" d="M784.02,213.8l-26.39-3.19c2.61,0,5.09-.86,7.05-2.35h21.04l-1.7,5.54Z" /><path class="c" d="M792.25,196.54c10.3,8.09.87,28.26-8.91,28.31-1.35,0-2.33-1.31-1.93-2.6l7.65-24.77c.42-1.36,2.07-1.82,3.2-.94Z" /><path class="c" d="M754.1,206.87h-3.24c-1.89,0-3.37-1.59-3.23-3.47,1.68-22.47,1.68-147.04,0-169.51-.14-1.88,1.34-3.47,3.23-3.47h3.24c5.77,0,10.73,4.15,11.67,9.85,3.75,22.91,5.92,49.73,5.92,78.38s-2.17,55.48-5.92,78.38c-.93,5.7-5.89,9.85-11.67,9.85Z" /><path class="c" d="M745.44,196.1c0,1.51-1.45,2.59-2.89,2.15l-32.36-9.7h0c-6.16-1.85-10.37-7.51-10.37-13.94V62.66c0-6.43,4.22-12.09,10.37-13.94h0s32.36-9.7,32.36-9.7c1.44-.43,2.89.65,2.89,2.15v154.92Z" /><path class="c" d="M739.39,30.41l-22.35,8.42c-11.22,4.23-23.45,4.98-35.11,2.15l-43.57-10.57h101.02Z" /><path class="c" d="M739.39,206.87l-22.35-8.42c-11.22-4.23-23.45-4.98-35.11-2.15l-43.57,10.57h101.02Z" /><circle class="b" cx="52.3" cy="146.3" r="3.22" /><polygon class="c" points="42.93 138.52 42.93 154.08 28.89 146.3 42.93 138.52" /><circle class="b" cx="52.3" cy="180.3" r="3.22" /><polygon class="c" points="28.89 188.08 28.89 172.52 42.93 180.3 28.89 188.08" /><line class="c" x1="52.9" y1="163.3" x2="31.5" y2="163.3" /><rect class="c" x="308.92" y="180.77" width="21.75" height="37.93" transform="translate(519.53 -120.06) rotate(90)" /><rect class="c" x="313.4" y="163.5" width="12.79" height="37.93" transform="translate(502.26 -137.33) rotate(90)" /><rect class="c" x="313.4" y="150.71" width="12.79" height="37.93" transform="translate(489.47 -150.12) rotate(90)" /><rect class="c" x="313.4" y="137.92" width="12.79" height="37.93" transform="translate(476.68 -162.91) rotate(90)" /><rect class="c" x="313.4" y="125.12" width="12.79" height="37.93" transform="translate(463.88 -175.7) rotate(90)" /><path class="c" d="M626.08,66.8h-15.89v-17.6h15.89c1.63,0,2.95,1.58,2.95,3.53v10.54c0,1.95-1.32,3.53-2.95,3.53Z" /><rect class="c" x="591.78" y="52.35" width="25.51" height="11.31" rx="5.66" ry="5.66" transform="translate(662.54 -546.53) rotate(90)" /><line class="c" x1="610.19" y1="70.76" x2="624.07" y2="70.76" /><line class="c" x1="610.19" y1="45.25" x2="624.07" y2="45.25" /><path class="c" d="M626.08,101.11h-15.89v-17.6h15.89c1.63,0,2.95,1.58,2.95,3.53v10.54c0,1.95-1.32,3.53-2.95,3.53Z" /><rect class="c" x="591.78" y="86.66" width="25.51" height="11.31" rx="5.66" ry="5.66" transform="translate(696.85 -512.22) rotate(90)" /><line class="c" x1="610.19" y1="105.07" x2="624.07" y2="105.07" /><line class="c" x1="610.19" y1="79.56" x2="624.07" y2="79.56" /><path class="c" d="M626.08,153.77h-15.89v-17.6h15.89c1.63,0,2.95,1.58,2.95,3.53v10.54c0,1.95-1.32,3.53-2.95,3.53Z" /><rect class="c" x="591.78" y="139.31" width="25.51" height="11.31" rx="5.66" ry="5.66" transform="translate(749.5 -459.56) rotate(90)" /><line class="c" x1="610.19" y1="157.72" x2="624.07" y2="157.72" /><line class="c" x1="610.19" y1="132.21" x2="624.07" y2="132.21" /><path class="c" d="M626.08,188.08h-15.89v-17.6h15.89c1.63,0,2.95,1.58,2.95,3.53v10.54c0,1.95-1.32,3.53-2.95,3.53Z" /><rect class="c" x="591.78" y="173.62" width="25.51" height="11.31" rx="5.66" ry="5.66" transform="translate(783.81 -425.25) rotate(90)" /><line class="c" x1="610.19" y1="192.04" x2="624.07" y2="192.04" /><line class="c" x1="610.19" y1="166.52" x2="624.07" y2="166.52" /><path class="c" d="M565.5,153.77h-15.89v-17.6h15.89c1.63,0,2.95,1.58,2.95,3.53v10.54c0,1.95-1.32,3.53-2.95,3.53Z" /><rect class="c" x="531.2" y="139.31" width="25.51" height="11.31" rx="5.66" ry="5.66" transform="translate(688.92 -398.99) rotate(90)" /><line class="c" x1="549.61" y1="157.72" x2="563.5" y2="157.72" /><line class="c" x1="549.61" y1="132.21" x2="563.5" y2="132.21" /><path class="c" d="M565.5,188.08h-15.89v-17.6h15.89c1.63,0,2.95,1.58,2.95,3.53v10.54c0,1.95-1.32,3.53-2.95,3.53Z" /><rect class="c" x="531.2" y="173.62" width="25.51" height="11.31" rx="5.66" ry="5.66" transform="translate(723.24 -364.68) rotate(90)" /><line class="c" x1="549.61" y1="192.04" x2="563.5" y2="192.04" /><line class="c" x1="549.61" y1="166.52" x2="563.5" y2="166.52" /><path class="c" d="M504.92,153.77h-15.89v-17.6h15.89c1.63,0,2.95,1.58,2.95,3.53v10.54c0,1.95-1.32,3.53-2.95,3.53Z" /><rect class="c" x="470.62" y="139.31" width="25.51" height="11.31" rx="5.66" ry="5.66" transform="translate(628.35 -338.41) rotate(90)" /><line class="c" x1="489.03" y1="157.72" x2="502.92" y2="157.72" /><line class="c" x1="489.03" y1="132.21" x2="502.92" y2="132.21" /><path class="c" d="M504.92,188.08h-15.89v-17.6h15.89c1.63,0,2.95,1.58,2.95,3.53v10.54c0,1.95-1.32,3.53-2.95,3.53Z" /><rect class="c" x="470.62" y="173.62" width="25.51" height="11.31" rx="5.66" ry="5.66" transform="translate(662.66 -304.1) rotate(90)" /><line class="c" x1="489.03" y1="192.04" x2="502.92" y2="192.04" /><line class="c" x1="489.03" y1="166.52" x2="502.92" y2="166.52" /><path class="c" d="M444.34,153.77h-15.89v-17.6h15.89c1.63,0,2.95,1.58,2.95,3.53v10.54c0,1.95-1.32,3.53-2.95,3.53Z" /><rect class="c" x="410.04" y="139.31" width="25.51" height="11.31" rx="5.66" ry="5.66" transform="translate(567.77 -277.83) rotate(90)" /><line class="c" x1="428.46" y1="157.72" x2="442.34" y2="157.72" /><line class="c" x1="428.46" y1="132.21" x2="442.34" y2="132.21" /><path class="c" d="M444.34,188.08h-15.89v-17.6h15.89c1.63,0,2.95,1.58,2.95,3.53v10.54c0,1.95-1.32,3.53-2.95,3.53Z" /><rect class="c" x="410.04" y="173.62" width="25.51" height="11.31" rx="5.66" ry="5.66" transform="translate(602.08 -243.52) rotate(90)" /><line class="c" x1="428.46" y1="192.04" x2="442.34" y2="192.04" /><line class="c" x1="428.46" y1="166.52" x2="442.34" y2="166.52" /><path class="c" d="M383.77,153.77h-15.89v-17.6h15.89c1.63,0,2.95,1.58,2.95,3.53v10.54c0,1.95-1.32,3.53-2.95,3.53Z" /><rect class="c" x="349.47" y="139.31" width="25.51" height="11.31" rx="5.66" ry="5.66" transform="translate(507.19 -217.25) rotate(90)" /><line class="c" x1="367.88" y1="157.72" x2="381.76" y2="157.72" /><line class="c" x1="367.88" y1="132.21" x2="381.76" y2="132.21" /><path class="c" d="M383.77,188.08h-15.89v-17.6h15.89c1.63,0,2.95,1.58,2.95,3.53v10.54c0,1.95-1.32,3.53-2.95,3.53Z" /><rect class="c" x="349.47" y="173.62" width="25.51" height="11.31" rx="5.66" ry="5.66" transform="translate(541.5 -182.94) rotate(90)" /><line class="c" x1="367.88" y1="192.04" x2="381.76" y2="192.04" /><line class="c" x1="367.88" y1="166.52" x2="381.76" y2="166.52" /><path class="c" d="M383.77,66.8h-15.89v-17.6h15.89c1.63,0,2.95,1.58,2.95,3.53v10.54c0,1.95-1.32,3.53-2.95,3.53Z" /><rect class="c" x="349.47" y="52.35" width="25.51" height="11.31" rx="5.66" ry="5.66" transform="translate(420.23 -304.22) rotate(90)" /><line class="c" x1="367.88" y1="70.76" x2="381.76" y2="70.76" /><line class="c" x1="367.88" y1="45.25" x2="381.76" y2="45.25" /><path class="c" d="M383.77,101.11h-15.89v-17.6h15.89c1.63,0,2.95,1.58,2.95,3.53v10.54c0,1.95-1.32,3.53-2.95,3.53Z" /><rect class="c" x="349.47" y="86.66" width="25.51" height="11.31" rx="5.66" ry="5.66" transform="translate(454.54 -269.91) rotate(90)" /><line class="c" x1="367.88" y1="105.07" x2="381.76" y2="105.07" /><line class="c" x1="367.88" y1="79.56" x2="381.76" y2="79.56" /><path class="c" d="M444.34,66.8h-15.89v-17.6h15.89c1.63,0,2.95,1.58,2.95,3.53v10.54c0,1.95-1.32,3.53-2.95,3.53Z" /><rect class="c" x="410.04" y="52.35" width="25.51" height="11.31" rx="5.66" ry="5.66" transform="translate(480.8 -364.8) rotate(90)" /><line class="c" x1="428.46" y1="70.76" x2="442.34" y2="70.76" /><line class="c" x1="428.46" y1="45.25" x2="442.34" y2="45.25" /><path class="c" d="M444.34,101.11h-15.89v-17.6h15.89c1.63,0,2.95,1.58,2.95,3.53v10.54c0,1.95-1.32,3.53-2.95,3.53Z" /><rect class="c" x="410.04" y="86.66" width="25.51" height="11.31" rx="5.66" ry="5.66" transform="translate(515.11 -330.49) rotate(90)" /><line class="c" x1="428.46" y1="105.07" x2="442.34" y2="105.07" /><line class="c" x1="428.46" y1="79.56" x2="442.34" y2="79.56" /><path class="c" d="M504.92,66.8h-15.89v-17.6h15.89c1.63,0,2.95,1.58,2.95,3.53v10.54c0,1.95-1.32,3.53-2.95,3.53Z" /><rect class="c" x="470.62" y="52.35" width="25.51" height="11.31" rx="5.66" ry="5.66" transform="translate(541.38 -425.37) rotate(90)" /><line class="c" x1="489.03" y1="70.76" x2="502.92" y2="70.76" /><line class="c" x1="489.03" y1="45.25" x2="502.92" y2="45.25" /><path class="c" d="M504.92,101.11h-15.89v-17.6h15.89c1.63,0,2.95,1.58,2.95,3.53v10.54c0,1.95-1.32,3.53-2.95,3.53Z" /><rect class="c" x="470.62" y="86.66" width="25.51" height="11.31" rx="5.66" ry="5.66" transform="translate(575.69 -391.06) rotate(90)" /><line class="c" x1="489.03" y1="105.07" x2="502.92" y2="105.07" /><line class="c" x1="489.03" y1="79.56" x2="502.92" y2="79.56" /><path class="c" d="M565.5,66.8h-15.89v-17.6h15.89c1.63,0,2.95,1.58,2.95,3.53v10.54c0,1.95-1.32,3.53-2.95,3.53Z" /><rect class="c" x="531.2" y="52.35" width="25.51" height="11.31" rx="5.66" ry="5.66" transform="translate(601.96 -485.95) rotate(90)" /><line class="c" x1="549.61" y1="70.76" x2="563.5" y2="70.76" /><line class="c" x1="549.61" y1="45.25" x2="563.5" y2="45.25" /><path class="c" d="M565.5,101.11h-15.89v-17.6h15.89c1.63,0,2.95,1.58,2.95,3.53v10.54c0,1.95-1.32,3.53-2.95,3.53Z" /><rect class="c" x="531.2" y="86.66" width="25.51" height="11.31" rx="5.66" ry="5.66" transform="translate(636.27 -451.64) rotate(90)" /><line class="c" x1="549.61" y1="105.07" x2="563.5" y2="105.07" /><line class="c" x1="549.61" y1="79.56" x2="563.5" y2="79.56" /><path class="c" d="M281.35,153.77h-15.89v-17.6h15.89c1.63,0,2.95,1.58,2.95,3.53v10.54c0,1.95-1.32,3.53-2.95,3.53Z" /><rect class="c" x="247.05" y="139.31" width="25.51" height="11.31" rx="5.66" ry="5.66" transform="translate(404.78 -114.84) rotate(90)" /><line class="c" x1="265.46" y1="157.72" x2="279.35" y2="157.72" /><line class="c" x1="265.46" y1="132.21" x2="279.35" y2="132.21" /><path class="c" d="M281.35,188.08h-15.89v-17.6h15.89c1.63,0,2.95,1.58,2.95,3.53v10.54c0,1.95-1.32,3.53-2.95,3.53Z" /><rect class="c" x="247.05" y="173.62" width="25.51" height="11.31" rx="5.66" ry="5.66" transform="translate(439.09 -80.53) rotate(90)" /><line class="c" x1="265.46" y1="192.04" x2="279.35" y2="192.04" /><line class="c" x1="265.46" y1="166.52" x2="279.35" y2="166.52" /><path class="c" d="M220.77,153.77h-15.89v-17.6h15.89c1.63,0,2.95,1.58,2.95,3.53v10.54c0,1.95-1.32,3.53-2.95,3.53Z" /><rect class="c" x="186.47" y="139.31" width="25.51" height="11.31" rx="5.66" ry="5.66" transform="translate(344.2 -54.26) rotate(90)" /><line class="c" x1="204.88" y1="157.72" x2="218.77" y2="157.72" /><line class="c" x1="204.88" y1="132.21" x2="218.77" y2="132.21" /><path class="c" d="M220.77,188.08h-15.89v-17.6h15.89c1.63,0,2.95,1.58,2.95,3.53v10.54c0,1.95-1.32,3.53-2.95,3.53Z" /><rect class="c" x="186.47" y="173.62" width="25.51" height="11.31" rx="5.66" ry="5.66" transform="translate(378.51 -19.95) rotate(90)" /><line class="c" x1="204.88" y1="192.04" x2="218.77" y2="192.04" /><line class="c" x1="204.88" y1="166.52" x2="218.77" y2="166.52" /><path class="c" d="M160.19,153.77h-15.89v-17.6h15.89c1.63,0,2.95,1.58,2.95,3.53v10.54c0,1.95-1.32,3.53-2.95,3.53Z" /><rect class="c" x="125.9" y="139.31" width="25.51" height="11.31" rx="5.66" ry="5.66" transform="translate(283.62 6.32) rotate(90)" /><line class="c" x1="144.31" y1="157.72" x2="158.19" y2="157.72" /><line class="c" x1="144.31" y1="132.21" x2="158.19" y2="132.21" /><path class="c" d="M160.19,188.08h-15.89v-17.6h15.89c1.63,0,2.95,1.58,2.95,3.53v10.54c0,1.95-1.32,3.53-2.95,3.53Z" /><rect class="c" x="125.9" y="173.62" width="25.51" height="11.31" rx="5.66" ry="5.66" transform="translate(317.93 40.63) rotate(90)" /><line class="c" x1="144.31" y1="192.04" x2="158.19" y2="192.04" /><line class="c" x1="144.31" y1="166.52" x2="158.19" y2="166.52" /><path class="c" d="M99.62,153.77h-15.89v-17.6h15.89c1.63,0,2.95,1.58,2.95,3.53v10.54c0,1.95-1.32,3.53-2.95,3.53Z" /><rect class="c" x="65.32" y="139.31" width="25.51" height="11.31" rx="5.66" ry="5.66" transform="translate(223.04 66.9) rotate(90)" /><line class="c" x1="83.73" y1="157.72" x2="97.61" y2="157.72" /><line class="c" x1="83.73" y1="132.21" x2="97.61" y2="132.21" /><path class="c" d="M99.62,188.08h-15.89v-17.6h15.89c1.63,0,2.95,1.58,2.95,3.53v10.54c0,1.95-1.32,3.53-2.95,3.53Z" /><rect class="c" x="65.32" y="173.62" width="25.51" height="11.31" rx="5.66" ry="5.66" transform="translate(257.35 101.21) rotate(90)" /><line class="c" x1="83.73" y1="192.04" x2="97.61" y2="192.04" /><line class="c" x1="83.73" y1="166.52" x2="97.61" y2="166.52" /><path class="c" d="M99.62,66.8h-15.89v-17.6h15.89c1.63,0,2.95,1.58,2.95,3.53v10.54c0,1.95-1.32,3.53-2.95,3.53Z" /><rect class="c" x="65.32" y="52.35" width="25.51" height="11.31" rx="5.66" ry="5.66" transform="translate(136.08 -20.07) rotate(90)" /><line class="c" x1="83.73" y1="70.76" x2="97.61" y2="70.76" /><line class="c" x1="83.73" y1="45.25" x2="97.61" y2="45.25" /><path class="c" d="M99.62,101.11h-15.89v-17.6h15.89c1.63,0,2.95,1.58,2.95,3.53v10.54c0,1.95-1.32,3.53-2.95,3.53Z" /><rect class="c" x="65.32" y="86.66" width="25.51" height="11.31" rx="5.66" ry="5.66" transform="translate(170.39 14.24) rotate(90)" /><line class="c" x1="83.73" y1="105.07" x2="97.61" y2="105.07" /><line class="c" x1="83.73" y1="79.56" x2="97.61" y2="79.56" /><path class="c" d="M160.19,66.8h-15.89v-17.6h15.89c1.63,0,2.95,1.58,2.95,3.53v10.54c0,1.95-1.32,3.53-2.95,3.53Z" /><rect class="c" x="125.9" y="52.35" width="25.51" height="11.31" rx="5.66" ry="5.66" transform="translate(196.65 -80.65) rotate(90)" /><line class="c" x1="144.31" y1="70.76" x2="158.19" y2="70.76" /><line class="c" x1="144.31" y1="45.25" x2="158.19" y2="45.25" /><path class="c" d="M160.19,101.11h-15.89v-17.6h15.89c1.63,0,2.95,1.58,2.95,3.53v10.54c0,1.95-1.32,3.53-2.95,3.53Z" /><rect class="c" x="125.9" y="86.66" width="25.51" height="11.31" rx="5.66" ry="5.66" transform="translate(230.96 -46.34) rotate(90)" /><line class="c" x1="144.31" y1="105.07" x2="158.19" y2="105.07" /><line class="c" x1="144.31" y1="79.56" x2="158.19" y2="79.56" /><path class="c" d="M220.77,66.8h-15.89v-17.6h15.89c1.63,0,2.95,1.58,2.95,3.53v10.54c0,1.95-1.32,3.53-2.95,3.53Z" /><rect class="c" x="186.47" y="52.35" width="25.51" height="11.31" rx="5.66" ry="5.66" transform="translate(257.23 -141.23) rotate(90)" /><line class="c" x1="204.88" y1="70.76" x2="218.77" y2="70.76" /><line class="c" x1="204.88" y1="45.25" x2="218.77" y2="45.25" /><path class="c" d="M220.77,101.11h-15.89v-17.6h15.89c1.63,0,2.95,1.58,2.95,3.53v10.54c0,1.95-1.32,3.53-2.95,3.53Z" /><rect class="c" x="186.47" y="86.66" width="25.51" height="11.31" rx="5.66" ry="5.66" transform="translate(291.54 -106.91) rotate(90)" /><line class="c" x1="204.88" y1="105.07" x2="218.77" y2="105.07" /><line class="c" x1="204.88" y1="79.56" x2="218.77" y2="79.56" /><path class="c" d="M281.35,66.8h-15.89v-17.6h15.89c1.63,0,2.95,1.58,2.95,3.53v10.54c0,1.95-1.32,3.53-2.95,3.53Z" /><rect class="c" x="247.05" y="52.35" width="25.51" height="11.31" rx="5.66" ry="5.66" transform="translate(317.81 -201.8) rotate(90)" /><line class="c" x1="265.46" y1="70.76" x2="279.35" y2="70.76" /><line class="c" x1="265.46" y1="45.25" x2="279.35" y2="45.25" /><path class="c" d="M281.35,101.11h-15.89v-17.6h15.89c1.63,0,2.95,1.58,2.95,3.53v10.54c0,1.95-1.32,3.53-2.95,3.53Z" /><rect class="c" x="247.05" y="86.66" width="25.51" height="11.31" rx="5.66" ry="5.66" transform="translate(352.12 -167.49) rotate(90)" /><line class="c" x1="265.46" y1="105.07" x2="279.35" y2="105.07" /><line class="c" x1="265.46" y1="79.56" x2="279.35" y2="79.56" /></g></svg>