<svg version="1.2" xmlns="http://www.w3.org/2000/svg" viewBox="0 0 417.32 186.57" width="418" height="187"><style>.a{fill:none;stroke:#f55;stroke-miterlimit:10;stroke-width:4}.b{fill:none;stroke:#f55;stroke-linecap:round;stroke-linejoin:round;stroke-width:4}.c{fill:none;stroke:#f55;stroke-linejoin:round;stroke-width:4}</style><path class="a" d="m404.5 126.3v23.5c0 1.8-1.4 3.2-3.3 3.2q0 0 0 0h-57.6c5-16.1-4-33.2-20.1-38.2-16.1-5-33.2 4-38.2 20.1-1.8 5.9-1.8 12.2 0 18.1h-152.2c4.9-16.1-4.1-33.2-20.2-38.2-16.1-4.9-33.2 4.1-38.2 20.2-0.9 2.9-1.3 5.9-1.4 9 0 3.1 0.5 6.2 1.4 9h-56.8c-2.8 0-5.1-2.3-5.1-5.1v-26.9c0-34.7 4.5-69.1 13.4-102.6 1-3.8 4.5-6.4 8.4-6.4h255.6c63.1 0 114.3 51.1 114.3 114.3z"/><path class="a" d="m134.4 144c0.1 16.8-13.5 30.5-30.4 30.6-13.4 0-25.3-8.7-29.3-21.6-5-16.1 4-33.2 20.1-38.2 16.1-5 33.2 4 38.3 20.1 0.9 2.9 1.3 6 1.3 9.1zm210.6 0c0 16.8-13.6 30.5-30.5 30.5-16.9 0-30.5-13.7-30.5-30.5 0-16.9 13.6-30.6 30.5-30.6 16.9 0 30.5 13.6 30.5 30.5v0.1z"/><path class="a" d="m314.5 162c-10 0-18.1-8-18.1-18 0-10 8.1-18.1 18.1-18.1 10 0 18.1 8.1 18.1 18.1 0 10-8.1 18-18.1 18z"/><path class="a" d="m103.9 162c-10 0-18.1-8-18.1-18 0-10 8.1-18.1 18.1-18.1 10 0 18 8.1 18 18.1 0 10-8 18-18 18z"/><path class="b" d="m225.7 71.7h-182.6c-2 0-3.6-1.6-3.6-3.6q0-0.6 0.2-1.1l10.3-32.3c2-6.2 7.7-10.5 14.3-10.5h182.1c1.9 0 3.5 1.7 3.5 3.6q0 0.6-0.1 1.1l-9.7 32.1c-1.9 6.3-7.8 10.7-14.4 10.7zm47.4-44.5l11.7 36.1c0.9 2.8 3.5 4.8 6.5 5.1l67.2 5c2.8 0.2 5.2-1.8 5.4-4.6 0.2-1.5-0.4-3-1.5-4.1l-24-22.7c-12.1-11.5-27.9-18.1-44.5-18.6l-17.5-0.6c-1.8-0.1-3.4 1.4-3.5 3.2q0 0.6 0.2 1.2 0 0 0 0z"/><path class="c" d="m399.1 91.3l-22.8-1.6c3.5 8.8 11.6 15 21 16.3l5.5 0.7m-387.1-33.3h10.2v43.6h-13.1"/><path class="b" d="m236.5 82.5h13.4m34 0h13.5m-190.6-58.3v47.5m57.3-47.5v47.5"/></svg>