<svg xmlns="http://www.w3.org/2000/svg" viewBox="0 0 233.66 577.31"><g xmlns="http://www.w3.org/2000/svg" transform="matrix(0 -1 1 0 -0 577.31)"><defs><style>.b{fill:none;stroke:#f55;stroke-linecap:round;stroke-linejoin:round;stroke-width:4px;}</style></defs><path class="b" d="M490.86,186.63l-25.02-3.15-32.71-4.12c3.9-11.31,6.77-25.66,8.08-41.69.06-.33.08-.67.08-1,.64-6.33.98-12.98.98-19.84,0-7.5-.39-14.74-1.14-21.6,0-.11-.03-.22-.03-.33-1.42-15.6-4.26-29.54-8.14-40.57l32.88-4.15,25.02-3.15c9.86,11.87,16.72,38.65,16.72,69.8s-6.85,57.93-16.72,69.8Z" /><path class="b" d="M564.07,164.85h-1.96c-3.67,0-7.06,1.97-8.87,5.16l-12.6,22.12c-.1.18.03.41.24.41h7.84" /><path class="b" d="M564.07,68.81h-1.96c-3.67,0-7.06-1.97-8.87-5.16l-12.6-22.12c-.1-.18.03-.41.24-.41h7.84" /><path class="b" d="M462.35,199.48l-7.52,18.94c-.15.37-.5.61-.9.61h0c-3.2,0-5.3-3.34-3.91-6.22l6.43-13.33" /><path class="b" d="M462.35,34.18l-7.52-18.94c-.15-.37-.5-.61-.9-.61h0c-3.2,0-5.3,3.34-3.91,6.22l6.43,13.33" /><path class="b" d="M527.67,199.48H25.31c-5.04,0-9.46-3.45-10.58-8.37-4.21-18.49-6.82-44.92-6.82-74.28,0-29.36,2.62-55.79,6.82-74.28,1.12-4.92,5.53-8.37,10.58-8.37h502.36c15.52,0,29.2,10.11,33.77,24.94,5.02,16.3,7.97,36.22,7.97,57.71,0,21.48-2.95,41.38-7.97,57.71-4.57,14.82-18.25,24.94-33.77,24.94Z" /><polygon class="b" points="390.24 44.06 436.51 44.06 454.59 39.01 394.45 39.01 390.24 44.06" /><polygon class="b" points="362.06 44.06 356.59 39.01 41.98 39.01 47.03 44.06 362.06 44.06" /><polygon class="b" points="390.24 189.6 436.51 189.6 454.59 194.65 394.45 194.65 390.24 189.6" /><polygon class="b" points="362.06 189.6 356.59 194.65 41.98 194.65 47.03 189.6 362.06 189.6" /><polygon class="b" points="18.32 58.78 18.32 174.86 14.7 179.28 14.7 54.15 18.32 58.78" /><line class="b" x1="372.58" y1="59.72" x2="372.58" y2="34.18" /><polyline class="b" points="432.51 179.28 372.58 173.94 36.94 173.94 14.73 191.11" /><polyline class="b" points="432.51 54.38 372.58 59.72 36.94 59.72 14.73 42.55" /><line class="b" x1="372.58" y1="173.94" x2="372.58" y2="199.48" /><line class="b" x1="36.94" y1="173.94" x2="36.94" y2="59.72" /><line class="b" x1="367.62" y1="104.07" x2="381.51" y2="104.07" /><path class="b" d="M383.51,125.63h-15.89s0-17.6,0-17.6h15.89c1.63,0,2.95,1.58,2.95,3.53v10.54c0,1.95-1.32,3.53-2.95,3.53Z" /><rect class="b" x="349.21" y="111.17" width="25.51" height="11.31" rx="5.66" ry="5.66" transform="translate(478.8 -245.14) rotate(90)" /><line class="b" x1="367.62" y1="129.59" x2="381.51" y2="129.59" /><line class="b" x1="307.2" y1="104.07" x2="321.09" y2="104.07" /><path class="b" d="M323.09,125.63h-15.89s0-17.6,0-17.6h15.89c1.63,0,2.95,1.58,2.95,3.53v10.54c0,1.95-1.32,3.53-2.95,3.53Z" /><rect class="b" x="288.79" y="111.17" width="25.51" height="11.31" rx="5.66" ry="5.66" transform="translate(418.38 -184.72) rotate(90)" /><line class="b" x1="307.2" y1="129.59" x2="321.09" y2="129.59" /><line class="b" x1="246.78" y1="104.07" x2="260.66" y2="104.07" /><path class="b" d="M262.67,125.63h-15.89s0-17.6,0-17.6h15.89c1.63,0,2.95,1.58,2.95,3.53v10.54c0,1.95-1.32,3.53-2.95,3.53Z" /><rect class="b" x="228.37" y="111.17" width="25.51" height="11.31" rx="5.66" ry="5.66" transform="translate(357.96 -124.29) rotate(90)" /><line class="b" x1="246.78" y1="129.59" x2="260.66" y2="129.59" /><line class="b" x1="186.36" y1="104.07" x2="200.24" y2="104.07" /><path class="b" d="M202.25,125.63h-15.89s0-17.6,0-17.6h15.89c1.63,0,2.95,1.58,2.95,3.53v10.54c0,1.95-1.32,3.53-2.95,3.53Z" /><rect class="b" x="167.95" y="111.17" width="25.51" height="11.31" rx="5.66" ry="5.66" transform="translate(297.53 -63.87) rotate(90)" /><line class="b" x1="186.36" y1="129.59" x2="200.24" y2="129.59" /><line class="b" x1="125.94" y1="104.07" x2="139.82" y2="104.07" /><path class="b" d="M141.83,125.63h-15.89s0-17.6,0-17.6h15.89c1.63,0,2.95,1.58,2.95,3.53v10.54c0,1.95-1.32,3.53-2.95,3.53Z" /><rect class="b" x="107.53" y="111.17" width="25.51" height="11.31" rx="5.66" ry="5.66" transform="translate(237.11 -3.45) rotate(90)" /><line class="b" x1="125.94" y1="129.59" x2="139.82" y2="129.59" /><line class="b" x1="65.52" y1="104.07" x2="79.4" y2="104.07" /><path class="b" d="M81.41,125.63h-15.89s0-17.6,0-17.6h15.89c1.63,0,2.95,1.58,2.95,3.53v10.54c0,1.95-1.32,3.53-2.95,3.53Z" /><rect class="b" x="47.11" y="111.17" width="25.51" height="11.31" rx="5.66" ry="5.66" transform="translate(176.69 56.97) rotate(90)" /><line class="b" x1="65.52" y1="129.59" x2="79.4" y2="129.59" /><path class="b" d="M383.51,92.75h-15.89s0-17.6,0-17.6h15.89c1.63,0,2.95,1.58,2.95,3.53v10.54c0,1.95-1.32,3.53-2.95,3.53Z" /><rect class="b" x="349.21" y="78.3" width="25.51" height="11.31" rx="5.66" ry="5.66" transform="translate(445.92 -278.01) rotate(90)" /><line class="b" x1="367.62" y1="96.71" x2="381.51" y2="96.71" /><line class="b" x1="367.62" y1="71.2" x2="381.51" y2="71.2" /><path class="b" d="M383.51,158.51h-15.89s0-17.6,0-17.6h15.89c1.63,0,2.95,1.58,2.95,3.53v10.54c0,1.95-1.32,3.53-2.95,3.53Z" /><rect class="b" x="349.21" y="144.05" width="25.51" height="11.31" rx="5.66" ry="5.66" transform="translate(511.67 -212.26) rotate(90)" /><line class="b" x1="367.62" y1="162.46" x2="381.51" y2="162.46" /><line class="b" x1="367.62" y1="136.95" x2="381.51" y2="136.95" /><path class="b" d="M323.09,92.75h-15.89s0-17.6,0-17.6h15.89c1.63,0,2.95,1.58,2.95,3.53v10.54c0,1.95-1.32,3.53-2.95,3.53Z" /><rect class="b" x="288.79" y="78.3" width="25.51" height="11.31" rx="5.66" ry="5.66" transform="translate(385.5 -217.59) rotate(90)" /><line class="b" x1="307.2" y1="96.71" x2="321.09" y2="96.71" /><line class="b" x1="307.2" y1="71.2" x2="321.09" y2="71.2" /><path class="b" d="M323.09,158.51h-15.89s0-17.6,0-17.6h15.89c1.63,0,2.95,1.58,2.95,3.53v10.54c0,1.95-1.32,3.53-2.95,3.53Z" /><rect class="b" x="288.79" y="144.05" width="25.51" height="11.31" rx="5.66" ry="5.66" transform="translate(451.25 -151.84) rotate(90)" /><line class="b" x1="307.2" y1="162.46" x2="321.09" y2="162.46" /><line class="b" x1="307.2" y1="136.95" x2="321.09" y2="136.95" /><path class="b" d="M262.67,158.51h-15.89s0-17.6,0-17.6h15.89c1.63,0,2.95,1.58,2.95,3.53v10.54c0,1.95-1.32,3.53-2.95,3.53Z" /><rect class="b" x="228.37" y="144.05" width="25.51" height="11.31" rx="5.66" ry="5.66" transform="translate(390.83 -91.42) rotate(90)" /><line class="b" x1="246.78" y1="162.46" x2="260.66" y2="162.46" /><line class="b" x1="246.78" y1="136.95" x2="260.66" y2="136.95" /><path class="b" d="M262.67,92.75h-15.89s0-17.6,0-17.6h15.89c1.63,0,2.95,1.58,2.95,3.53v10.54c0,1.95-1.32,3.53-2.95,3.53Z" /><rect class="b" x="228.37" y="78.3" width="25.51" height="11.31" rx="5.66" ry="5.66" transform="translate(325.08 -157.17) rotate(90)" /><line class="b" x1="246.78" y1="96.71" x2="260.66" y2="96.71" /><line class="b" x1="246.78" y1="71.2" x2="260.66" y2="71.2" /><path class="b" d="M202.25,92.75h-15.89s0-17.6,0-17.6h15.89c1.63,0,2.95,1.58,2.95,3.53v10.54c0,1.95-1.32,3.53-2.95,3.53Z" /><rect class="b" x="167.95" y="78.3" width="25.51" height="11.31" rx="5.66" ry="5.66" transform="translate(264.66 -96.75) rotate(90)" /><line class="b" x1="186.36" y1="96.71" x2="200.24" y2="96.71" /><line class="b" x1="186.36" y1="71.2" x2="200.24" y2="71.2" /><path class="b" d="M202.25,158.51h-15.89s0-17.6,0-17.6h15.89c1.63,0,2.95,1.58,2.95,3.53v10.54c0,1.95-1.32,3.53-2.95,3.53Z" /><rect class="b" x="167.95" y="144.05" width="25.51" height="11.31" rx="5.66" ry="5.66" transform="translate(330.41 -31) rotate(90)" /><line class="b" x1="186.36" y1="162.46" x2="200.24" y2="162.46" /><line class="b" x1="186.36" y1="136.95" x2="200.24" y2="136.95" /><path class="b" d="M141.83,92.75h-15.89s0-17.6,0-17.6h15.89c1.63,0,2.95,1.58,2.95,3.53v10.54c0,1.95-1.32,3.53-2.95,3.53Z" /><rect class="b" x="107.53" y="78.3" width="25.51" height="11.31" rx="5.66" ry="5.66" transform="translate(204.24 -36.33) rotate(90)" /><line class="b" x1="125.94" y1="96.71" x2="139.82" y2="96.71" /><line class="b" x1="125.94" y1="71.2" x2="139.82" y2="71.2" /><path class="b" d="M141.83,158.51h-15.89s0-17.6,0-17.6h15.89c1.63,0,2.95,1.58,2.95,3.53v10.54c0,1.95-1.32,3.53-2.95,3.53Z" /><rect class="b" x="107.53" y="144.05" width="25.51" height="11.31" rx="5.66" ry="5.66" transform="translate(269.99 29.42) rotate(90)" /><line class="b" x1="125.94" y1="162.46" x2="139.82" y2="162.46" /><line class="b" x1="125.94" y1="136.95" x2="139.82" y2="136.95" /><path class="b" d="M81.41,92.75h-15.89s0-17.6,0-17.6h15.89c1.63,0,2.95,1.58,2.95,3.53v10.54c0,1.95-1.32,3.53-2.95,3.53Z" /><rect class="b" x="47.11" y="78.3" width="25.51" height="11.31" rx="5.66" ry="5.66" transform="translate(143.81 24.09) rotate(90)" /><line class="b" x1="65.52" y1="96.71" x2="79.4" y2="96.71" /><line class="b" x1="65.52" y1="71.2" x2="79.4" y2="71.2" /><path class="b" d="M81.41,158.51h-15.89s0-17.6,0-17.6h15.89c1.63,0,2.95,1.58,2.95,3.53v10.54c0,1.95-1.32,3.53-2.95,3.53Z" /><rect class="b" x="47.11" y="144.05" width="25.51" height="11.31" rx="5.66" ry="5.66" transform="translate(209.57 89.85) rotate(90)" /><line class="b" x1="65.52" y1="162.46" x2="79.4" y2="162.46" /><line class="b" x1="65.52" y1="136.95" x2="79.4" y2="136.95" /></g></svg>