<?xml version="1.0" encoding="UTF-8"?><svg id="a" xmlns="http://www.w3.org/2000/svg" viewBox="0 0 577.31 233.66"><defs><style>.b{stroke-miterlimit:10;}.b,.c,.d,.e{stroke:#f55;stroke-width:4px;}.b,.e{fill:none;}.c,.d{fill:#f55;}.c,.d,.e{stroke-linejoin:round;}.c,.e{stroke-linecap:round;}</style></defs><path class="b" d="M460.61,185.55c-2.79,6.6-3.08,14-.8,20.8H164.31c2.29-6.8,2-14.2-.8-20.8h297.2-.1Z"/><path class="d" d="M106.91,196.95c0,3.3.5,6.5,1.5,9.4H25.91c-8.28.06-15.04-6.62-15.1-14.9,0-.07,0-.13,0-.2v-23.7h125.5c-16.24,0-29.4,13.16-29.4,29.4ZM571.21,171.95v13c0,11.8-9.6,21.4-21.5,21.4h-34c5.19-15.38-3.07-32.07-18.46-37.26-3.07-1.04-6.3-1.56-9.54-1.54h48.6l8.6-7.3,1.9,1.8,24.5,9.9h-.1Z"/><path class="b" d="M571.21,158.85v13l-24.5-9.8-1.8-1.8-8.7,7.3H10.81V49.05c0-20.43,16.57-37,37-37h296c21.4,0,42.2,7.1,59.1,20.2l73.4,57c17.2,13.31,35.57,25.03,54.9,35l27.6,14.4c7.6,3.87,12.39,11.67,12.4,20.2h0Z"/><path class="b" d="M165.71,196.95c.22,16.13-12.67,29.38-28.8,29.6-.2,0-.4,0-.6,0-16.24,0-29.4-13.16-29.4-29.4s13.16-29.4,29.4-29.4c16.2,0,29.34,13.1,29.4,29.3v-.1Z"/><path class="b" d="M151.11,196.95c0,8.12-6.58,14.7-14.7,14.7s-14.7-6.58-14.7-14.7c.67-8.09,7.77-14.11,15.86-13.44,7.16.59,12.85,6.28,13.44,13.44h.1ZM502.51,196.95c0,8.12-6.57,14.7-14.69,14.71-8.12,0-14.7-6.57-14.71-14.69v-.02c0-8.12,6.59-14.7,14.71-14.69,8.11,0,14.69,6.58,14.69,14.69Z"/><path class="b" d="M517.21,196.95c.17,16.13-12.77,29.33-28.9,29.5-.2,0-.4,0-.6,0-16.24-.06-29.35-13.26-29.3-29.5s13.26-29.35,29.5-29.3c16.16.06,29.24,13.14,29.3,29.3ZM352.11,117.25H44.21c-1.49,0-2.7-1.21-2.7-2.7,0-.03,0-.07,0-.1v-52.2c0-1.5,1.2-2.7,2.7-2.7h314c1.6,0,2.9,1.5,2.7,3l-6.1,52.3c-.15,1.37-1.32,2.41-2.7,2.4ZM136.31,59.55v57.7M248.51,59.55v57.7"/><path class="e" d="M344.81,126.45h19.8M388.61,126.45h19.8M482.31,122.65l-46.4-49c-8.5-9-20.2-14-32.5-14h-18.2l4.2,31.3c1.73,13.17,12.28,23.43,25.5,24.8l67.5,7-.1-.1ZM544.81,160.25l-21.6-21.6h35.7"/><path class="c" d="M487.71,167.55c-11.8.04-22.43,7.13-27,18H163.31c-4.57-10.92-15.26-18.03-27.1-18h351.5Z"/><path class="e" d="M27.61,167.55v-48.6l-16.8,7.5"/></svg>