<?xml version="1.0" encoding="utf-8"?>
<!-- Generator: Adobe Illustrator 28.1.0, SVG Export Plug-In . SVG Version: 6.00 Build 0)  -->
<svg version="1.1" id="Layer_1" xmlns="http://www.w3.org/2000/svg" xmlns:xlink="http://www.w3.org/1999/xlink" x="0px" y="0px"
	 viewBox="0 0 1000 1000" style="enable-background:new 0 0 1000 1000;" xml:space="preserve">
<style type="text/css">
	.st0{fill:#FFEBEB;}
	.st1{fill:none;stroke:#FF5555;stroke-width:30;stroke-linecap:round;stroke-linejoin:round;stroke-miterlimit:10;}
	.st2{fill:#FF5555;}
	.st3{fill:#FF5555;stroke:#FF5555;stroke-width:30;stroke-linecap:round;stroke-linejoin:round;stroke-miterlimit:10;}
	.st4{fill:none;stroke:#FF5555;stroke-width:20;stroke-linecap:round;stroke-linejoin:round;stroke-miterlimit:10;}
	.st5{fill:#3D0000;}
</style>
<g>
	<path class="st1" d="M810.8,854.6v124.9H680.4V856.6h107.4C795.7,856.6,803.3,855.9,810.8,854.6z"/>
	<path class="st1" d="M319.6,856.6v122.8H189.2V854.6c7.4,1.3,15.1,2,22.9,2H319.6z"/>
	<path class="st1" d="M918,150.7v575.7c0,71.9-58.3,130.2-130.2,130.2H212.2C140.3,856.6,82,798.3,82,726.4V150.7
		c0-71.9,58.3-130.2,130.2-130.2h575.7C859.8,20.6,918,78.8,918,150.7z"/>
	<path class="st1" d="M918,150.7v25.7H82v-25.7c0-71.9,58.3-130.2,130.2-130.2h575.7C859.8,20.6,918,78.8,918,150.7z"/>
	<path class="st1" d="M918,499.1v227.3c0,64.1-46.3,117.3-107.2,128.2c-7.5,1.3-15.1,2-22.9,2H212.2c-7.8,0-15.5-0.7-22.9-2
		C128.3,843.7,82,790.5,82,726.4V499.1H918z"/>
	<circle class="st1" cx="723.3" cy="687.6" r="74.8"/>
	<circle class="st1" cx="276.1" cy="687.6" r="74.8"/>
	<path class="st1" d="M810.8,494.4c0,1.6,0,3.1-0.1,4.7H578.9c-0.1-1.6-0.1-3.1-0.1-4.7c0-64.1,52-116,116-116
		C758.8,378.4,810.8,430.3,810.8,494.4z"/>
	<line class="st1" x1="320.7" y1="98.5" x2="679.3" y2="98.5"/>
</g>
</svg>
